<?xml version="1.0" standalone="no"?>
<!DOCTYPE svg PUBLIC "-//W3C//DTD SVG 20010904//EN"
 "http://www.w3.org/TR/2001/REC-SVG-20010904/DTD/svg10.dtd">
<svg version="1.0" xmlns="http://www.w3.org/2000/svg"
 width="600.000000pt" height="600.000000pt" viewBox="0 0 600.000000 600.000000"
 preserveAspectRatio="xMidYMid meet">
<metadata>
Created by potrace 1.14, written by Peter Selinger 2001-2017
</metadata>
<g transform="translate(0.000000,600.000000) scale(0.100000,-0.100000)"
fill="#000000" stroke="none">
<path d="M2650 5539 c-472 -30 -881 -200 -1245 -515 -297 -257 -456 -452 -596
-734 -102 -205 -197 -522 -183 -610 4 -23 8 -39 9 -38 2 2 15 58 29 125 14 68
35 141 46 163 11 22 18 46 14 53 -4 7 -3 8 1 4 5 -4 19 9 32 30 13 21 23 31
24 23 0 -8 15 28 33 80 73 213 219 490 258 490 9 0 20 5 24 12 5 8 2 9 -9 5
-10 -3 -17 -2 -17 3 0 5 11 12 24 16 14 3 33 17 43 31 46 65 222 256 199 216
-4 -7 -5 -13 -1 -13 3 0 10 10 15 23 8 21 9 21 9 -5 1 -26 3 -27 47 -22 35 3
44 1 38 -8 -6 -10 -4 -11 7 0 7 6 17 12 22 12 4 0 5 -6 1 -12 -4 -7 5 -2 19
11 14 13 25 29 24 35 -1 6 4 10 12 8 8 -2 28 10 45 26 138 129 408 281 623
351 234 77 453 107 712 98 435 -15 859 -163 1235 -430 131 -93 280 -222 386
-333 47 -49 77 -80 67 -68 -9 11 -17 23 -17 26 0 4 25 8 55 10 38 2 56 -1 60
-10 3 -8 0 -10 -7 -6 -7 4 -8 3 -4 -5 4 -6 11 -9 15 -7 9 6 76 -71 146 -166
27 -38 52 -68 57 -68 4 0 8 -6 8 -14 0 -8 7 -17 16 -20 18 -7 18 -8 -49 94
-121 182 -343 426 -520 569 -497 403 -1113 609 -1707 570z"/>
<path d="M2581 5314 c-824 -112 -1440 -737 -1567 -1590 -23 -152 -23 -443 0
-599 38 -254 109 -481 226 -720 197 -401 524 -761 900 -991 676 -412 1476
-440 2089 -72 491 294 806 794 881 1398 15 123 12 391 -5 527 -125 963 -857
1786 -1785 2007 -229 55 -515 70 -739 40z m597 -64 c287 -50 519 -138 782
-298 294 -180 560 -445 757 -758 81 -127 189 -358 237 -504 42 -130 92 -348
84 -370 -2 -6 -33 11 -68 38 -210 158 -492 313 -777 427 l-91 36 -40 83 c-22
45 -52 93 -66 107 -36 35 -99 45 -224 36 -59 -4 -316 -8 -572 -8 -461 0 -579
-5 -840 -35 -158 -18 -136 -13 -325 -64 -354 -95 -608 -199 -864 -354 -50 -31
-94 -56 -98 -56 -12 0 8 197 32 316 84 415 313 793 640 1054 242 194 601 336
930 370 125 12 368 3 503 -20z m772 -1244 c19 -11 70 -104 200 -367 l175 -354
64 -2 c114 -3 227 -83 265 -186 22 -61 100 -729 86 -737 -7 -4 -68 -10 -136
-13 -69 -3 -128 -7 -130 -10 -3 -3 4 -79 15 -168 22 -178 19 -195 -29 -230
-20 -15 -53 -20 -166 -25 -205 -10 -204 -11 -232 241 l-17 160 -60 -3 c-33 -1
-377 -21 -765 -42 -388 -22 -727 -40 -755 -40 -27 0 -55 -4 -61 -8 -9 -5 -8
-45 2 -152 19 -202 18 -205 -14 -241 l-28 -32 -148 -10 c-230 -15 -236 -10
-255 247 -6 88 -12 161 -14 163 -2 1 -68 -1 -147 -7 -79 -5 -145 -8 -147 -7
-3 3 -26 298 -45 578 -11 165 -10 180 7 225 24 63 95 139 150 159 24 10 67 20
96 23 l53 7 106 355 c58 195 109 365 113 377 17 47 37 49 672 73 330 13 670
26 755 30 267 12 363 11 390 -4z m-2400 -1629 c13 4 13 3 0 -6 -8 -5 -18 -7
-22 -5 -4 3 -5 -2 -1 -11 5 -13 8 -14 15 -3 7 10 11 9 23 -6 8 -11 15 -27 16
-35 0 -9 2 -25 4 -36 2 -11 7 -39 11 -62 4 -24 16 -51 30 -64 21 -20 30 -21
144 -17 90 4 123 2 131 -8 6 -7 15 -59 20 -116 17 -186 34 -223 114 -258 29
-12 60 -16 115 -14 212 9 251 19 294 77 20 27 21 39 18 188 -3 126 -1 160 10
164 14 5 145 12 363 20 219 8 377 15 410 20 38 5 137 8 150 5 6 -1 12 -1 15 0
18 8 492 25 571 21 15 -1 26 -45 43 -166 8 -59 33 -136 52 -156 35 -39 71 -50
161 -50 47 0 113 3 147 7 66 7 139 41 156 74 6 11 13 86 15 167 3 80 7 149 10
152 3 3 15 -1 27 -8 11 -7 17 -8 14 -3 -3 6 1 13 10 16 10 4 13 2 8 -7 -6 -9
-4 -9 7 -1 17 14 228 18 248 5 8 -5 11 -16 8 -26 -4 -9 -3 -14 3 -10 13 8 13
4 -5 -39 -9 -20 -20 -34 -25 -31 -5 3 -7 0 -4 -8 9 -25 -104 -213 -207 -343
-26 -33 -93 -104 -148 -157 -503 -483 -1270 -617 -1961 -342 -125 49 -310 144
-407 207 -307 200 -596 507 -757 802 -20 38 -24 51 -14 58 22 13 31 9 25 -12
-3 -11 -1 -23 4 -26 5 -3 9 -2 8 3 -5 30 3 38 41 40 22 2 40 -1 40 -6 0 -5
-14 -7 -30 -6 -17 1 -33 -2 -37 -8 -3 -6 -1 -7 5 -3 7 4 12 1 13 -6 0 -10 2
-11 6 0 4 10 8 10 18 2 11 -9 18 -5 30 14 13 19 21 23 34 17 9 -4 23 -6 31 -4z"/>
<path d="M2690 4767 c-3 -3 -107 -7 -231 -11 -125 -3 -237 -10 -250 -15 -13
-5 -37 -22 -52 -38 -33 -35 -35 -64 -18 -270 24 -284 32 -312 99 -340 32 -13
73 -14 279 -9 133 4 264 13 290 19 42 11 50 17 68 54 12 24 26 48 33 55 8 8
58 15 139 19 111 5 128 9 143 26 25 31 51 35 85 13 36 -24 85 -26 126 -5 23
12 34 13 51 4 28 -15 72 -14 110 2 23 9 37 9 68 -1 59 -19 95 -3 205 93 49 43
62 80 45 131 -10 32 -86 106 -108 106 -5 0 -26 12 -47 26 -33 22 -45 25 -89
20 -66 -8 -92 -8 -143 0 -28 4 -52 1 -71 -8 -22 -12 -35 -12 -63 -3 -46 15
-87 10 -113 -15 -28 -25 -58 -26 -81 0 -16 18 -31 20 -157 20 l-138 0 -18 38
c-19 41 -34 57 -72 74 -27 12 -83 21 -90 15z m96 -58 c7 -6 16 -25 19 -42 15
-76 -1 -70 176 -62 l159 7 0 -32 c0 -29 3 -32 23 -26 12 3 41 6 65 6 38 0 42
2 42 26 0 23 3 25 43 22 35 -3 43 -7 45 -26 3 -20 8 -23 40 -20 32 3 37 6 34
26 -3 20 1 22 42 22 39 0 46 -3 46 -20 0 -17 7 -20 38 -20 34 0 38 3 38 23 -1
19 5 22 42 25 39 3 42 1 42 -22 0 -23 4 -26 39 -26 52 0 117 -51 123 -97 6
-48 -51 -113 -98 -113 -29 0 -34 -3 -34 -24 0 -20 -6 -25 -37 -29 -47 -5 -53
-2 -53 30 0 19 -4 24 -16 19 -9 -3 -27 -6 -41 -6 -22 0 -24 -3 -19 -25 6 -24
4 -25 -39 -25 -41 0 -45 2 -45 25 0 23 -4 25 -41 25 -39 0 -41 -2 -37 -25 4
-20 1 -26 -17 -31 -41 -10 -70 -1 -73 24 -3 20 -9 22 -68 22 l-66 0 7 -28 6
-29 -107 -6 c-59 -4 -131 -7 -161 -7 l-53 0 0 -45 c0 -46 -24 -85 -53 -85 -8
0 -129 -5 -269 -11 -289 -12 -307 -9 -326 53 -6 18 -18 131 -27 250 -16 202
-16 220 -1 243 9 13 26 27 39 30 32 8 474 24 522 18 21 -2 45 -8 51 -14z"/>
<path d="M2398 4504 c-33 -17 -48 -43 -48 -81 0 -104 164 -126 194 -26 11 36
-19 92 -58 108 -43 18 -54 18 -88 -1z m87 -59 c30 -29 31 -39 5 -65 -26 -26
-44 -25 -70 2 -27 29 -26 66 3 78 33 13 36 12 62 -15z"/>
<path d="M2947 3820 c-362 -15 -660 -29 -662 -31 -5 -6 -184 -603 -181 -606 3
-4 2030 90 2036 94 2 2 -60 132 -138 289 l-142 284 -127 -1 c-71 -1 -424 -14
-786 -29z"/>
<path d="M4125 3113 c-93 -49 -134 -142 -104 -234 31 -92 117 -154 214 -154
76 0 129 26 170 84 26 37 30 51 30 110 0 57 -4 74 -28 109 -41 62 -116 102
-192 102 -35 -1 -73 -7 -90 -17z"/>
<path d="M1982 3009 c-164 -82 -153 -305 20 -379 166 -71 344 70 298 239 -14
52 -72 118 -125 142 -55 26 -139 24 -193 -2z"/>
<path d="M612 3655 c0 -16 2 -22 5 -12 2 9 2 23 0 30 -3 6 -5 -1 -5 -18z"/>
<path d="M601 3586 c1 -24 3 -26 6 -8 2 12 9 20 14 17 5 -4 9 0 9 8 0 7 -7 14
-15 14 -10 0 -15 -10 -14 -31z"/>
<path d="M593 3495 c0 -22 2 -30 4 -17 2 12 2 30 0 40 -3 9 -5 -1 -4 -23z"/>
<path d="M582 3390 c0 -19 2 -27 5 -17 2 9 2 25 0 35 -3 9 -5 1 -5 -18z"/>
<path d="M825 3339 c-223 -188 -229 -192 -237 -167 -14 50 3 -190 22 -305 51
-304 162 -617 311 -874 207 -359 413 -589 815 -906 l47 -37 -31 -12 c-28 -11
-32 -17 -32 -51 0 -59 40 -116 81 -117 9 0 19 -6 22 -14 3 -7 18 -17 34 -20
15 -4 35 -13 43 -20 8 -8 26 -16 40 -19 14 -3 70 -16 125 -30 55 -14 121 -27
147 -30 25 -3 50 -7 55 -10 5 -3 45 -9 88 -12 44 -4 83 -9 86 -11 17 -10 299
-33 299 -24 0 7 48 6 80 -3 14 -3 39 -8 57 -11 17 -2 37 -7 44 -12 8 -4 10 -3
5 4 -4 7 -2 12 3 12 6 0 11 4 11 9 0 4 -24 11 -52 15 -49 6 -114 17 -163 29
-11 2 -42 8 -70 12 -61 8 -112 24 -281 86 -150 56 -191 75 -172 81 7 3 13 11
14 19 0 8 2 22 2 32 1 9 10 17 19 17 9 0 14 2 11 5 -3 4 -17 3 -32 -1 -23 -5
-25 -10 -20 -38 5 -29 4 -30 -10 -11 -15 20 -15 20 -11 -1 3 -21 2 -21 -28 -7
-18 8 -39 19 -47 24 -8 5 -34 19 -58 30 -24 11 -48 31 -54 44 -7 16 -17 22
-31 19 -30 -5 -41 6 -19 21 20 15 46 15 59 0 4 -4 2 -5 -4 -1 -18 10 -16 -6 3
-30 8 -10 13 -14 10 -7 -4 6 -1 15 5 19 7 4 9 3 6 -3 -4 -6 0 -18 7 -28 12
-17 13 -15 11 18 -2 20 0 39 4 41 4 3 7 -7 8 -22 2 -64 3 -69 14 -43 5 13 12
21 15 18 3 -3 1 -15 -6 -26 -7 -14 -7 -21 0 -21 5 0 10 8 10 18 0 13 2 14 9 3
7 -11 10 -11 15 0 3 8 4 2 1 -13 -4 -21 -1 -28 10 -28 12 0 15 6 10 19 -10 32
-14 61 -9 61 3 0 14 -5 25 -10 10 -6 19 -8 19 -6 0 6 -135 86 -145 86 -3 0 -3
-4 0 -10 3 -6 -1 -7 -10 -3 -12 4 -13 8 -4 13 8 6 1 14 -22 25 -44 23 -176
121 -212 157 -15 16 -25 33 -21 39 4 8 9 7 15 -2 4 -7 11 -11 14 -7 3 3 -36
42 -88 86 -375 323 -662 757 -815 1232 -48 151 -48 149 -8 147 19 -1 32 -5 29
-9 -2 -5 0 -8 6 -8 5 0 12 6 15 13 4 6 5 3 2 -9 -3 -17 2 -21 23 -19 16 0 27
8 29 18 2 10 8 14 14 10 8 -4 9 0 4 13 -26 66 -65 298 -79 473 l-12 139 -70
-59z m112 -581 c-3 -8 -6 -5 -6 6 -1 11 2 17 5 13 3 -3 4 -12 1 -19z m898
-1658 c3 -5 1 -10 -4 -10 -6 0 -11 5 -11 10 0 6 2 10 4 10 3 0 8 -4 11 -10z
m100 -30 c3 -5 -3 -10 -15 -10 -12 0 -18 5 -15 10 3 6 10 10 15 10 5 0 12 -4
15 -10z m171 -31 c3 -5 -1 -9 -8 -9 -10 0 -10 -2 1 -9 8 -5 9 -11 3 -15 -6 -3
-14 3 -17 15 -6 19 -8 19 -19 3 -12 -15 -13 -14 -10 7 1 13 3 25 3 26 3 4 42
-11 47 -18z"/>
<path d="M583 3290 c0 -36 2 -50 4 -32 2 17 2 47 0 65 -2 17 -4 3 -4 -33z"/>
<path d="M5195 2963 c0 -115 -4 -246 -8 -292 -6 -59 -5 -81 2 -76 6 3 11 1 11
-4 0 -6 9 -11 20 -11 11 0 20 5 20 11 0 5 -5 7 -12 3 -7 -4 -8 -3 -4 5 6 9 11
9 21 1 10 -8 15 -8 21 1 4 8 3 9 -4 5 -8 -5 -10 -2 -6 9 5 11 10 13 19 5 10
-9 14 -6 18 12 10 51 7 -46 -4 -115 -26 -176 -97 -401 -183 -582 -100 -210
-217 -375 -394 -556 -76 -79 -109 -119 -101 -125 7 -4 10 -3 6 3 -4 6 0 16 7
22 11 10 15 8 18 -5 4 -24 172 144 267 266 285 369 428 785 448 1298 l6 173
-79 80 c-43 43 -81 79 -84 79 -3 0 -5 -93 -5 -207z"/>
<path d="M850 2765 c0 -2 6 -8 13 -14 10 -8 14 -7 14 2 0 8 -6 14 -14 14 -7 0
-13 -1 -13 -2z"/>
<path d="M5171 2564 c0 -11 3 -14 6 -6 3 7 2 16 -1 19 -3 4 -6 -2 -5 -13z"/>
<path d="M4529 1164 c-47 -57 -365 -234 -534 -298 -38 -15 -84 -34 -102 -42
-17 -9 -37 -13 -44 -9 -7 5 -10 4 -6 -2 9 -15 -130 -59 -247 -79 -110 -18
-166 -38 -166 -57 0 -7 3 -8 8 -2 4 6 41 10 82 11 133 2 248 13 370 35 30 6
82 14 114 19 33 5 89 18 125 29 37 11 93 28 126 38 58 17 111 44 148 78 10 9
21 14 25 11 3 -4 16 4 29 16 24 23 32 60 11 55 -8 -1 -13 8 -12 21 0 12 -4 22
-9 22 -5 0 -7 12 -4 26 3 20 1 24 -12 19 -9 -3 16 24 54 60 39 35 67 64 64 65
-4 0 -13 -7 -20 -16z"/>
<path d="M1955 1050 c3 -5 8 -10 11 -10 2 0 4 5 4 10 0 6 -5 10 -11 10 -5 0
-7 -4 -4 -10z"/>
<path d="M2136 982 c3 -15 5 -32 6 -39 1 -7 7 -14 14 -17 10 -4 11 1 4 18 -5
13 -6 27 -2 32 4 4 1 4 -5 0 -7 -4 -13 -3 -13 3 0 5 5 11 12 13 8 3 6 7 -4 10
-13 5 -15 1 -12 -20z"/>
<path d="M2275 950 c-4 -6 3 -10 14 -10 25 0 27 6 6 13 -8 4 -17 2 -20 -3z"/>
<path d="M2229 948 c-9 -18 -3 -47 11 -51 9 -2 17 1 17 9 0 7 -4 11 -9 8 -7
-5 -12 10 -9 29 1 6 -7 10 -10 5z"/>
<path d="M2320 936 c0 -2 7 -7 16 -10 8 -3 12 -2 9 4 -6 10 -25 14 -25 6z"/>
<path d="M2665 810 c3 -5 12 -7 20 -3 21 7 19 13 -6 13 -11 0 -18 -4 -14 -10z"/>
<path d="M2956 679 c3 -5 12 -9 21 -9 19 0 9 13 -12 16 -8 1 -13 -2 -9 -7z"/>
<path d="M3405 681 c-3 -5 -2 -12 3 -15 5 -3 9 1 9 9 0 17 -3 19 -12 6z"/>
<path d="M3153 673 c9 -2 25 -2 35 0 9 3 1 5 -18 5 -19 0 -27 -2 -17 -5z"/>
</g>
</svg>
